<?xml version="1.0" encoding="utf-8"?>
<!-- Generator: Adobe Illustrator 21.0.2, SVG Export Plug-In . SVG Version: 6.00 Build 0)  -->
<svg version="1.1" id="Layer_1" xmlns="http://www.w3.org/2000/svg" xmlns:xlink="http://www.w3.org/1999/xlink" x="0px" y="0px"
	 viewBox="0 0 250 160" style="enable-background:new 0 0 250 160;" xml:space="preserve">
<style type="text/css">
	.st0{fill:#004D26;}
	.st1{fill:#231F20;}
	.st2{fill:#FFFFFF;}
	.st3{display:none;}
	.st4{display:inline;fill:#231F20;stroke:#231F20;stroke-width:3;stroke-miterlimit:10;}
	.st5{display:inline;fill:#231F20;}
	.st6{display:inline;fill:#231F20;stroke:#FFFFFF;stroke-width:4;stroke-miterlimit:10;}
	.st7{display:inline;fill:#231F20;stroke:#231F20;stroke-width:15;stroke-linecap:round;stroke-miterlimit:10;}
</style>
<g>
	<path class="st1" d="M216.522,100.768H113.141c-6.6,0-12,5.4-12,12v16.344c0,6.6,5.4,12,12,12h103.381c6.6,0,12-5.4,12-12v-16.344
		C228.522,106.168,223.122,100.768,216.522,100.768z"/>
	<path class="st1" d="M217.192,142.528H112.471c-7.028,0-12.746-5.717-12.746-12.746v-17.685c0-7.028,5.718-12.746,12.746-12.746
		h104.722c7.028,0,12.746,5.717,12.746,12.746v17.685C229.938,136.811,224.221,142.528,217.192,142.528z M112.471,102.184
		c-5.466,0-9.913,4.447-9.913,9.913v17.685c0,5.467,4.447,9.913,9.913,9.913h104.722c5.467,0,9.913-4.447,9.913-9.913v-17.685
		c0-5.467-4.447-9.913-9.913-9.913H112.471z"/>
</g>
<g>
	<path class="st1" d="M196.165,76.5l-62.666-9.523c-4.055,0-7.373,3.318-7.373,7.373v19.046c0,4.055,3.318,7.373,7.373,7.373h62.666
		c4.055,0,7.373-3.318,7.373-7.373v-9.523C203.537,79.818,200.22,76.5,196.165,76.5z"/>
</g>
<g>
	<path class="st1" d="M180.611,68.297l-25.49-4.182c-1.649-0.271-3.22,0.857-3.491,2.507l-0.969,5.906
		c-0.271,1.649,0.857,3.22,2.507,3.491l25.49,4.182c1.649,0.271,3.22-0.857,3.491-2.507l0.969-5.906
		C183.388,70.139,182.26,68.568,180.611,68.297z"/>
</g>
<g>
	<circle class="st1" cx="103.189" cy="138.655" r="17.09"/>
	<path class="st2" d="M103.189,157.632c-10.465,0-18.978-8.513-18.978-18.977s8.513-18.978,18.978-18.978
		s18.978,8.514,18.978,18.978S113.654,157.632,103.189,157.632z M103.189,123.453c-8.382,0-15.201,6.819-15.201,15.202
		c0,8.382,6.82,15.201,15.201,15.201s15.201-6.819,15.201-15.201C118.391,130.272,111.571,123.453,103.189,123.453z"/>
</g>
<g>
	<circle class="st1" cx="228.522" cy="138.655" r="17.09"/>
	<path class="st2" d="M228.522,157.632c-10.465,0-18.977-8.513-18.977-18.977s8.513-18.978,18.977-18.978
		s18.978,8.514,18.978,18.978S238.986,157.632,228.522,157.632z M228.522,123.453c-8.382,0-15.201,6.819-15.201,15.202
		c0,8.382,6.819,15.201,15.201,15.201c8.383,0,15.202-6.819,15.202-15.201C243.724,130.272,236.904,123.453,228.522,123.453z"/>
</g>
<g>
	<line class="st1" x1="103.189" y1="103.057" x2="9.581" y2="9.449"/>
	<path class="st1" d="M103.189,110.138c-1.812,0-3.624-0.691-5.007-2.074L4.574,14.456c-2.766-2.765-2.766-7.249,0-10.014
		c2.766-2.766,7.249-2.766,10.014,0l93.608,93.608c2.766,2.766,2.766,7.249,0,10.015
		C106.814,109.447,105.002,110.138,103.189,110.138z"/>
</g>
</svg>
