<?xml version="1.0" encoding="utf-8"?>
<!-- Generator: Adobe Illustrator 21.0.2, SVG Export Plug-In . SVG Version: 6.00 Build 0)  -->
<svg version="1.1" id="Layer_1" xmlns="http://www.w3.org/2000/svg" xmlns:xlink="http://www.w3.org/1999/xlink" x="0px" y="0px"
	 viewBox="0 0 160 160" style="enable-background:new 0 0 160 160;" xml:space="preserve">
<style type="text/css">
	.st0{fill:#004D26;}
	.st1{fill:#231F20;}
	.st2{fill:#FFFFFF;}
	.st3{display:none;}
	.st4{display:inline;fill:#231F20;stroke:#231F20;stroke-width:3;stroke-miterlimit:10;}
	.st5{display:inline;fill:#231F20;}
	.st6{display:inline;fill:#231F20;stroke:#FFFFFF;stroke-width:4;stroke-miterlimit:10;}
	.st7{display:inline;fill:#231F20;stroke:#231F20;stroke-width:15;stroke-linecap:round;stroke-miterlimit:10;}
</style>
<g>
	<path class="st1" d="M134.809,151.779c-6.369,6.369-40.772,17.377-89.995-31.846c-63.58-63.58-36.938-95.086-36.938-95.086
		l37.061,37.061c-8.584,8.584-6.717,9.265,18.53,34.513c24.321,24.321,27.596,26.144,34.861,18.879L134.809,151.779z"/>
	<path class="st1" d="M14.088,18.592L27.557,5.123c3.498-3.498,9.221-3.498,12.719,0l24.363,24.363
		c3.498,3.498,3.498,9.221,0,12.719L51.09,55.755L14.088,18.592z"/>
	<path class="st1" d="M104.487,109.456l13.469-13.469c3.498-3.498,9.221-3.498,12.719,0l24.363,24.363
		c3.498,3.498,3.498,9.221,0,12.719l-13.549,13.549L104.487,109.456z"/>
</g>
</svg>
